<?xml version="1.0" encoding="utf-8"?>
<!-- Generator: Adobe Illustrator 22.1.0, SVG Export Plug-In . SVG Version: 6.00 Build 0)  -->
<svg version="1.1" id="Layer_1" xmlns="http://www.w3.org/2000/svg" xmlns:xlink="http://www.w3.org/1999/xlink" x="0px" y="0px"
	 width="83px" height="44px" viewBox="0 0 83 44" style="enable-background:new 0 0 83 44;" xml:space="preserve">
<style type="text/css">
	.st0{fill:#F22B29;}
	.st1{fill:#FFFFFF;}
</style>
<g>
	<g>
		<path class="st0" d="M13.8,14.3c3.8,0,7,1.5,9.8,4s4,6,4,9.8s-1.5,7-4,10c-2.8,2.5-6,4-9.8,4S7,40.5,4,38c-2.5-3.2-4-6.6-4-10.3
			s1.5-7,4-9.8S10.3,14.3,13.8,14.3z M5,27.9c0,2.5,0.8,4.5,2.5,6.5c1.8,1.8,3.8,2.8,6.3,2.8c2.3,0,4.5-0.8,6.3-2.8
			c1.8-1.8,2.5-4,2.5-6.5s-0.8-4.8-2.5-6.5c-1.5-2-3.5-2.8-6.3-2.8c-2.3,0-4.3,0.8-6,2.8C6,23.2,5,25.4,5,27.9z"/>
	</g>
	<polygon class="st1" points="35.7,24.2 35.7,24.2 35.7,2 31.2,2 31.2,41.2 35.7,41.2 35.7,30.2 35.7,30.2 	"/>
	<path class="st1" d="M53.1,39.3c0-2-0.5-4-1.5-6c-1.3-2-2-3-2.8-4c-0.8-0.8-1.5-1.3-2-1.5l-1.5-0.8c4.3-2.3,6.8-5.8,7.8-10l0.5-2.3
		h-5.5l-0.3,1.8c-0.5,2.3-1.8,4.5-4,6c-1.8,1.5-3.8,2-5.8,2.3v4.5c2.3,0.3,4.3,1.3,6,2.3c2,1.8,3.5,4,3.8,7l0.3,2h4.8v-1.3H53.1z"/>
	<path class="st1" d="M78.5,2v17.9v7.5c0,2.8-0.8,5-2.5,7c-1.8,2-4,2.8-6.5,2.8c-2.5,0-4.5-0.8-6.3-2.5c-1.8-1.8-2.5-4-2.5-6.3
		c0-2.5,0.8-4.8,2.8-6.5c1.8-1.8,4.3-2.8,6.8-2.8c0.3,0,0.5,0,0.8,0s0.8,0,1.5,0.3c0.8,0.3,1.8,0.5,2.8,1.3v-5.3
		c-1.3-0.5-2.3-0.8-3-0.8c-0.5-0.3-1.3-0.3-2.5-0.3c-4.3,0-7.5,1.3-10.3,3.8c-2.5,2.5-4,5.8-4,10s1.5,7.5,4,10s6,3.8,10,3.8
		c3.8,0,6.5-0.8,8.8-2.8v2.8H83V27.4v-7.5V2H78.5z"/>
</g>
</svg>
