<?xml version="1.0" encoding="utf-8"?>
<!-- Generator: Adobe Illustrator 22.1.0, SVG Export Plug-In . SVG Version: 6.00 Build 0)  -->
<svg version="1.1" id="Layer_1" xmlns="http://www.w3.org/2000/svg" xmlns:xlink="http://www.w3.org/1999/xlink" x="0px" y="0px"
	 width="165.8px" height="44px" viewBox="0 0 165.8 44" style="enable-background:new 0 0 165.8 44;" xml:space="preserve">
<style type="text/css">
	.st0{fill:#FFFFFF;}
	.st1{fill:#A30000;}
	.st2{fill:#CC0000;}
	.st3{fill:#820000;}
</style>
<g>
	<title>Logotype_RH_OpenShiftContainerPlatform_RGB_White</title>
	<path class="st0" d="M58,12.7l-1.6-3.3h-1.1v3.3h-2.7V2.8H57c0.5,0,1.1,0.1,1.6,0.2c0.4,0.1,0.9,0.3,1.2,0.6c0.3,0.3,0.6,0.6,0.8,1
		c0.2,0.5,0.3,1,0.3,1.5c0,0.6-0.1,1.3-0.5,1.8c-0.3,0.5-0.8,0.9-1.3,1.1l2,3.8H58z M57.9,5.3C57.6,5.1,57.3,5,57,5h-1.7v2.2h1.6
		c0.4,0,0.7-0.1,1-0.3c0.2-0.2,0.3-0.5,0.3-0.8C58.2,5.8,58.1,5.5,57.9,5.3z"/>
	<path class="st0" d="M63.2,12.7V2.8h7.6v2.3h-4.9v1.3h3v2.3h-3v1.7h5v2.3H63.2z"/>
	<path class="st0" d="M81.3,10.1c-0.2,0.6-0.6,1.1-1,1.5c-0.5,0.4-1.1,0.7-1.7,0.9c-0.8,0.2-1.5,0.3-2.3,0.3H73V2.8h3.5
		c0.7,0,1.4,0.1,2.1,0.2c0.6,0.1,1.1,0.4,1.6,0.8c0.5,0.4,0.8,0.9,1,1.5c0.3,0.8,0.4,1.6,0.4,2.4C81.7,8.5,81.5,9.3,81.3,10.1z
		 M78.7,6.6c-0.1-0.3-0.2-0.6-0.4-0.8c-0.2-0.2-0.4-0.4-0.7-0.5c-0.4-0.1-0.7-0.2-1.1-0.1h-0.7v5.2h0.6c0.4,0,0.7,0,1.1-0.1
		c0.3-0.1,0.5-0.2,0.7-0.4c0.2-0.2,0.4-0.5,0.4-0.8c0.1-0.4,0.1-0.8,0.1-1.2C78.8,7.3,78.8,7,78.7,6.6L78.7,6.6z"/>
	<path class="st0" d="M94.7,12.7V8.8h-3.1v3.9h-2.8V2.8h2.8v3.6h3.1V2.8h2.8v9.9H94.7z"/>
	<path class="st0" d="M106.4,12.7l-0.5-1.8h-3l-0.5,1.8h-3l3.6-9.9h2.8l3.6,9.9H106.4z M105,8.1l-0.2-0.8l-0.2-0.6
		c-0.1-0.2-0.1-0.4-0.1-0.5c0-0.2-0.1-0.3-0.1-0.5c0,0.2-0.1,0.3-0.1,0.5c0,0.2-0.1,0.3-0.1,0.5L104,7.3c-0.1,0.2-0.1,0.5-0.2,0.8
		l-0.2,0.7h1.6L105,8.1z"/>
	<path class="st0" d="M115,5.2v7.5h-2.7V5.2h-2.8V2.8h8.3v2.4H115z"/>
	<path class="st0" d="M121.4,4.5c-0.1,0.2-0.2,0.3-0.3,0.4c-0.1,0.1-0.3,0.2-0.4,0.3c-0.2,0.1-0.3,0.1-0.5,0.1c-0.2,0-0.3,0-0.5-0.1
		c-0.2-0.1-0.3-0.2-0.4-0.3c-0.1-0.1-0.2-0.3-0.3-0.4C119,4.3,119,4.2,119,4c0-0.2,0-0.3,0.1-0.5c0.1-0.2,0.2-0.3,0.3-0.4
		c0.1-0.1,0.3-0.2,0.4-0.3c0.2-0.1,0.3-0.1,0.5-0.1c0.2,0,0.3,0,0.5,0.1c0.2,0.1,0.3,0.2,0.4,0.3c0.1,0.1,0.2,0.3,0.3,0.4
		C121.6,3.8,121.6,4.2,121.4,4.5z M121.3,3.6c-0.1-0.1-0.1-0.2-0.2-0.3c-0.1-0.1-0.2-0.2-0.3-0.2c-0.3-0.1-0.6-0.1-0.9,0
		c-0.1,0.1-0.2,0.1-0.3,0.2c-0.1,0.1-0.2,0.2-0.2,0.3c-0.1,0.3-0.1,0.6,0,0.8c0.1,0.1,0.1,0.2,0.2,0.3c0.3,0.3,0.8,0.4,1.2,0.2
		c0.1-0.1,0.2-0.1,0.3-0.2c0.1-0.1,0.2-0.2,0.2-0.3C121.4,4.2,121.4,3.9,121.3,3.6L121.3,3.6z M120.8,4c-0.1,0.1-0.1,0.1-0.2,0.1
		l0.3,0.6h-0.3l-0.3-0.5H120v0.5h-0.2V3.3h0.6c0.1,0,0.1,0,0.2,0c0.1,0,0.1,0,0.1,0.1c0,0,0.1,0.1,0.1,0.1c0,0.1,0,0.1,0,0.2
		C120.8,3.8,120.8,3.9,120.8,4L120.8,4z M120.5,3.6c0,0-0.1,0-0.2,0H120v0.4h0.4c0.1,0,0.1,0,0.2,0c0,0,0.1-0.1,0.1-0.1
		C120.6,3.7,120.6,3.6,120.5,3.6z"/>
	<path class="st0" d="M63.9,26.1c-0.3,0.9-0.7,1.7-1.2,2.4c-0.5,0.7-1.2,1.2-2,1.6c-0.8,0.4-1.7,0.6-2.5,0.6c-1.7,0-3.4-0.8-4.5-2.2
		c-0.6-0.7-1-1.5-1.2-2.4c-0.3-1-0.4-2.1-0.4-3.1c0-1,0.1-2.1,0.4-3.1c0.3-0.9,0.7-1.7,1.3-2.4c0.5-0.7,1.2-1.2,2-1.6
		c0.8-0.4,1.7-0.6,2.5-0.6c1.7,0,3.4,0.8,4.4,2.2c0.6,0.7,1,1.6,1.3,2.4c0.3,1,0.5,2,0.4,3.1C64.3,24,64.2,25.1,63.9,26.1z
		 M62.3,20.5c-0.2-0.7-0.5-1.4-1-2c-0.4-0.5-0.9-1-1.4-1.3c-0.6-0.3-1.2-0.4-1.8-0.4c-0.6,0-1.2,0.1-1.8,0.4c-0.6,0.3-1,0.7-1.4,1.2
		c-0.4,0.6-0.7,1.2-0.9,1.9c-0.2,0.8-0.4,1.7-0.3,2.5c0,0.9,0.1,1.7,0.4,2.5c0.2,0.7,0.5,1.4,1,2c0.4,0.5,0.9,1,1.4,1.3
		c0.6,0.3,1.2,0.4,1.8,0.4c0.6,0,1.2-0.1,1.8-0.4c0.6-0.3,1.1-0.7,1.4-1.2c0.4-0.6,0.7-1.2,0.9-1.9c0.2-0.8,0.3-1.7,0.3-2.5
		C62.7,22.2,62.6,21.3,62.3,20.5z"/>
	<path class="st0" d="M77.5,22c-0.2,0.6-0.6,1-1,1.4c-0.5,0.4-1,0.7-1.6,0.9c-0.7,0.2-1.4,0.3-2,0.3h-3.6v5.8h-1.7V15.6h5.6
		c0.6,0,1.3,0.1,1.9,0.3c0.6,0.2,1.1,0.4,1.5,0.8c0.4,0.4,0.8,0.9,1,1.4c0.3,0.6,0.4,1.3,0.4,2C77.9,20.7,77.8,21.3,77.5,22z
		 M75.4,17.8c-0.7-0.6-1.5-0.8-2.4-0.8h-3.9v6h3.6c2.2,0,3.4-1,3.4-3C76.3,19.2,76,18.4,75.4,17.8L75.4,17.8z"/>
	<path class="st0" d="M80.7,30.4V15.6h9v1.5h-7.3v4.7h4.3v1.5h-4.3v5.7h7.7v1.5H80.7z"/>
	<path class="st0" d="M102.4,30.4l-6.5-10.2c-0.1-0.1-0.2-0.3-0.3-0.5l-0.3-0.5c-0.1-0.2-0.2-0.3-0.3-0.5c-0.1-0.1-0.1-0.3-0.2-0.4
		v12.1h-1.6V15.6h1.6l6.4,10.4c0.1,0.1,0.2,0.3,0.3,0.5l0.3,0.5c0.1,0.2,0.2,0.3,0.3,0.5c0.1,0.1,0.1,0.3,0.2,0.4V15.6h1.6v14.9
		H102.4z"/>
	<path class="st0" d="M116.7,28.2c-0.2,0.5-0.5,1-1,1.3c-0.5,0.4-1,0.7-1.6,0.9c-0.7,0.2-1.4,0.3-2.1,0.3c-1,0-1.9-0.2-2.8-0.6
		c-0.8-0.4-1.5-0.9-2.2-1.5l1.1-1.2c0.5,0.5,1.2,1,1.8,1.3c0.7,0.3,1.4,0.5,2.1,0.5c0.8,0.1,1.7-0.2,2.4-0.7
		c0.6-0.4,0.9-1.1,0.9-1.9c0-0.3-0.1-0.6-0.2-0.9c-0.1-0.3-0.3-0.6-0.6-0.8c-0.3-0.3-0.7-0.5-1.1-0.7c-0.5-0.3-1.1-0.5-1.7-0.7
		c-0.7-0.2-1.4-0.5-2-0.9c-0.5-0.2-0.9-0.6-1.3-0.9c-0.3-0.3-0.6-0.7-0.7-1.1c-0.2-0.5-0.2-0.9-0.2-1.4c0-1.1,0.4-2.1,1.3-2.8
		c0.4-0.3,0.9-0.6,1.5-0.8c0.6-0.2,1.3-0.3,1.9-0.3c0.9,0,1.7,0.1,2.5,0.4c0.7,0.3,1.4,0.7,2,1.2l-1.1,1.3c-0.5-0.4-1-0.8-1.6-1
		c-0.6-0.2-1.3-0.4-1.9-0.4c-0.4,0-0.9,0.1-1.3,0.2c-0.3,0.1-0.6,0.3-0.9,0.5c-0.2,0.2-0.4,0.4-0.5,0.7c-0.1,0.3-0.2,0.6-0.2,0.8
		c0,0.3,0,0.6,0.1,0.8c0.1,0.3,0.3,0.5,0.5,0.7c0.3,0.3,0.7,0.5,1.1,0.7c0.6,0.3,1.2,0.5,1.8,0.7c0.7,0.2,1.4,0.5,2.1,0.9
		c0.5,0.2,0.9,0.6,1.3,0.9c0.3,0.3,0.6,0.7,0.7,1.2c0.1,0.5,0.2,1,0.2,1.5C117,27.1,116.9,27.7,116.7,28.2z"/>
	<path class="st0" d="M129.5,30.4v-7h-7.4v7h-1.7V15.6h1.7v6.4h7.4v-6.4h1.7v14.9H129.5z"/>
	<path class="st0" d="M135.2,30.4V15.6h1.7v14.9H135.2z"/>
	<path class="st0" d="M142.5,17.1V22h4.1v1.5h-4.1v6.9h-1.7V15.6h8.7v1.5H142.5z"/>
	<path class="st0" d="M157.7,17.1v13.4H156V17.1h-4.4v-1.5H162v1.5H157.7z"/>
	<path class="st0" d="M165.7,17.3c-0.1,0.2-0.2,0.3-0.3,0.4c-0.1,0.1-0.3,0.2-0.4,0.3c-0.3,0.1-0.7,0.1-1,0
		c-0.2-0.1-0.3-0.1-0.4-0.3c-0.1-0.1-0.2-0.3-0.3-0.4c-0.1-0.3-0.1-0.7,0-1c0.1-0.2,0.2-0.3,0.3-0.4c0.4-0.4,0.9-0.5,1.4-0.3
		c0.2,0.1,0.3,0.2,0.4,0.3c0.1,0.1,0.2,0.3,0.3,0.4C165.9,16.6,165.9,17,165.7,17.3z M165.6,16.4c-0.1-0.1-0.1-0.2-0.2-0.3
		c-0.1-0.1-0.2-0.2-0.3-0.2c-0.3-0.1-0.6-0.1-0.8,0c-0.1,0.1-0.2,0.1-0.3,0.2c-0.1,0.1-0.2,0.2-0.2,0.3c-0.1,0.3-0.1,0.6,0,0.8
		c0.1,0.3,0.3,0.5,0.6,0.6c0.3,0.1,0.6,0.1,0.8,0c0.1-0.1,0.2-0.1,0.3-0.2c0.1-0.1,0.2-0.2,0.2-0.3C165.7,17,165.7,16.7,165.6,16.4
		L165.6,16.4z M165.1,16.8c-0.1,0.1-0.1,0.1-0.2,0.1l0.3,0.6h-0.3l-0.3-0.5h-0.3v0.5h-0.2v-1.4h0.6c0.1,0,0.1,0,0.2,0
		c0.1,0,0.1,0,0.1,0.1c0,0,0.1,0.1,0.1,0.1c0,0.1,0,0.1,0,0.2C165.1,16.6,165.1,16.7,165.1,16.8L165.1,16.8z M164.8,16.4
		c0,0-0.1,0-0.2,0h-0.4v0.4h0.4c0.1,0,0.1,0,0.2,0c0,0,0.1-0.1,0.1-0.1C164.9,16.4,164.9,16.4,164.8,16.4L164.8,16.4z"/>
	<path class="st0" d="M56.9,40.8c-0.5,0.2-1,0.4-1.5,0.4c-0.4,0-0.9-0.1-1.3-0.3c-0.4-0.2-0.7-0.5-1-0.8c-0.3-0.4-0.5-0.8-0.6-1.2
		c-0.3-1-0.3-2.1,0-3.1c0.1-0.4,0.3-0.9,0.6-1.2c0.3-0.3,0.6-0.6,1-0.8c0.4-0.2,0.9-0.3,1.3-0.3c0.5,0,1.1,0.1,1.5,0.4
		c0.4,0.3,0.7,0.6,1,1l-1,0.6c-0.2-0.3-0.4-0.5-0.6-0.7c-0.3-0.2-0.6-0.2-0.9-0.2c-0.6,0-1.2,0.2-1.5,0.7c-0.4,0.6-0.5,1.3-0.5,2
		c0,0.7,0.1,1.4,0.5,2c0.3,0.5,0.9,0.8,1.5,0.7c0.3,0,0.7-0.1,1-0.2c0.3-0.2,0.5-0.4,0.7-0.7l0.9,0.6C57.7,40.2,57.4,40.6,56.9,40.8
		z"/>
	<path class="st0" d="M63.7,39.5c-0.1,0.3-0.3,0.7-0.5,0.9c-0.2,0.3-0.5,0.5-0.8,0.6c-0.3,0.1-0.7,0.2-1,0.2c-0.7,0-1.3-0.3-1.8-0.8
		c-0.2-0.3-0.4-0.6-0.5-0.9c-0.2-0.8-0.2-1.6,0-2.4c0.1-0.3,0.3-0.7,0.5-0.9c0.2-0.3,0.5-0.5,0.8-0.6c0.3-0.1,0.6-0.2,1-0.2
		c0.7,0,1.3,0.3,1.8,0.8c0.2,0.3,0.4,0.6,0.5,0.9c0.1,0.4,0.2,0.8,0.2,1.2C63.9,38.7,63.8,39.1,63.7,39.5z M62.4,36.9
		c-0.2-0.3-0.6-0.5-1-0.5c-0.4,0-0.8,0.2-1,0.5c-0.3,0.4-0.4,0.9-0.4,1.3c0,0.5,0.1,1,0.4,1.4c0.2,0.3,0.6,0.5,1,0.5
		c0.2,0,0.4,0,0.6-0.1c0.2-0.1,0.3-0.2,0.4-0.4c0.1-0.2,0.2-0.4,0.3-0.6c0.1-0.2,0.1-0.5,0.1-0.7C62.9,37.8,62.7,37.3,62.4,36.9z"/>
	<path class="st0" d="M68.7,41.1v-3.1c0-0.4-0.1-0.8-0.3-1.2c-0.2-0.2-0.5-0.4-0.8-0.3c-0.3,0-0.6,0.1-0.8,0.4
		c-0.2,0.3-0.3,0.7-0.3,1.1v3.2h-1.1v-5.6h1.1V36c0.1-0.2,0.4-0.4,0.6-0.5c0.3-0.1,0.5-0.2,0.8-0.2c0.6,0,1.1,0.2,1.5,0.6
		c0.4,0.6,0.6,1.2,0.5,1.9v3.2H68.7z"/>
	<path class="st0" d="M73.9,40.9c-0.1,0.1-0.3,0.1-0.5,0.2c-0.2,0-0.4,0.1-0.6,0.1c-0.3,0-0.7-0.1-0.9-0.4c-0.2-0.3-0.4-0.7-0.3-1.1
		v-3.2h-0.8v-1h0.8v-1.6l1.1-0.6v2.2h1.4v1h-1.4v3c0,0.2,0,0.4,0.1,0.5c0.1,0.1,0.3,0.1,0.4,0.1c0.1,0,0.3,0,0.4-0.1
		c0.1,0,0.3-0.1,0.4-0.2L73.9,40.9z"/>
	<path class="st0" d="M78.6,41.1v-0.5c-0.2,0.2-0.4,0.4-0.7,0.5c-0.3,0.1-0.6,0.2-0.9,0.2c-0.2,0-0.5,0-0.7-0.1
		c-0.2-0.1-0.4-0.2-0.6-0.3c-0.2-0.2-0.3-0.4-0.4-0.6c-0.1-0.3-0.2-0.6-0.2-0.9c0-0.3,0.1-0.6,0.2-0.8c0.1-0.2,0.3-0.4,0.5-0.6
		c0.2-0.2,0.5-0.3,0.7-0.3c0.3-0.1,0.6-0.1,0.9-0.1c0.4,0,0.9,0.1,1.2,0.2v-0.4c0-0.3-0.1-0.5-0.3-0.7c-0.2-0.2-0.5-0.3-0.8-0.2
		c-0.3,0-0.5,0-0.8,0.1c-0.2,0.1-0.5,0.1-0.7,0.3l-0.4-0.8c0.3-0.2,0.6-0.3,0.9-0.4c0.3-0.1,0.7-0.1,1.1-0.1c0.5,0,1.1,0.1,1.5,0.5
		c0.4,0.3,0.6,0.9,0.6,1.4v3.9H78.6z M78.6,38.7c-0.2-0.1-0.3-0.1-0.5-0.2c-0.2,0-0.5-0.1-0.8-0.1c-0.3,0-0.6,0.1-0.8,0.2
		c-0.2,0.1-0.3,0.4-0.3,0.6c0,0.3,0.1,0.5,0.3,0.7c0.2,0.2,0.5,0.3,0.8,0.3c0.3,0,0.6-0.1,0.8-0.2c0.2-0.1,0.4-0.3,0.5-0.5
		L78.6,38.7z"/>
	<path class="st0" d="M82.3,34.6c-0.1,0.1-0.3,0.2-0.5,0.2c-0.2,0-0.4-0.1-0.5-0.2c-0.1-0.1-0.2-0.3-0.2-0.5c0-0.2,0.1-0.4,0.2-0.5
		c0.1-0.1,0.3-0.2,0.5-0.2c0.2,0,0.4,0.1,0.5,0.2c0.1,0.1,0.2,0.3,0.2,0.5C82.6,34.3,82.5,34.4,82.3,34.6z M81.3,41.1v-5.6h1.1v5.6
		L81.3,41.1z"/>
	<path class="st0" d="M87.4,41.1v-3.1c0-0.4-0.1-0.8-0.3-1.2c-0.2-0.2-0.5-0.4-0.8-0.3c-0.3,0-0.6,0.1-0.9,0.4
		c-0.2,0.3-0.3,0.7-0.3,1.1v3.2h-1.1v-5.6h1.1V36c0.1-0.2,0.4-0.4,0.6-0.5c0.3-0.1,0.5-0.2,0.8-0.2c0.6,0,1.1,0.2,1.5,0.6
		c0.4,0.6,0.6,1.2,0.5,1.9v3.2H87.4z"/>
	<path class="st0" d="M94.6,38.5c0,0.1,0,0.2,0,0.2h-3.7c0,0.2,0.1,0.5,0.2,0.7c0.1,0.2,0.2,0.3,0.3,0.5c0.1,0.1,0.3,0.2,0.4,0.3
		c0.2,0.1,0.3,0.1,0.5,0.1c0.2,0,0.4,0,0.6-0.1c0.2-0.1,0.4-0.2,0.6-0.3l0.6,0.7c-0.2,0.2-0.5,0.4-0.9,0.6c-0.3,0.1-0.7,0.2-1.1,0.2
		c-0.3,0-0.6-0.1-0.9-0.2c-0.3-0.1-0.6-0.3-0.8-0.6c-0.2-0.3-0.4-0.6-0.5-0.9c-0.1-0.4-0.2-0.8-0.2-1.2c0-0.4,0.1-0.9,0.2-1.3
		c0.1-0.3,0.3-0.6,0.5-0.9c0.2-0.2,0.5-0.4,0.8-0.6c0.3-0.1,0.7-0.2,1-0.2c0.4,0,0.7,0.1,1,0.2c0.3,0.1,0.5,0.3,0.7,0.6
		c0.2,0.3,0.3,0.6,0.4,0.9c0.1,0.4,0.1,0.7,0.1,1.1C94.7,38.3,94.7,38.4,94.6,38.5z M93.5,37.2c-0.1-0.2-0.1-0.3-0.2-0.4
		c-0.1-0.1-0.2-0.2-0.4-0.3c-0.2-0.1-0.4-0.1-0.6-0.1c-0.3,0-0.7,0.1-0.9,0.4c-0.2,0.3-0.4,0.7-0.4,1h2.6
		C93.5,37.6,93.5,37.4,93.5,37.2L93.5,37.2z"/>
	<path class="st0" d="M99.1,36.7c-0.1-0.1-0.2-0.1-0.4-0.2c-0.2,0-0.3-0.1-0.5-0.1c-0.3,0-0.6,0.1-0.8,0.4c-0.2,0.3-0.3,0.7-0.3,1.1
		v3.2H96v-5.6h1.1V36c0.1-0.2,0.3-0.3,0.5-0.5c0.2-0.1,0.5-0.2,0.7-0.2c0.2,0,0.4,0,0.6,0.1c0.1,0,0.3,0.1,0.4,0.2L99.1,36.7z"/>
	<path class="st0" d="M108.8,37c-0.1,0.3-0.3,0.5-0.5,0.7c-0.2,0.2-0.5,0.4-0.8,0.4c-0.3,0.1-0.7,0.2-1,0.2h-2v2.8h-1.1v-7.4h3.1
		c0.3,0,0.6,0.1,1,0.2c0.3,0.1,0.5,0.2,0.8,0.4c0.2,0.2,0.4,0.5,0.5,0.7c0.1,0.3,0.2,0.7,0.2,1C109,36.3,108.9,36.7,108.8,37z
		 M107.5,35c-0.3-0.2-0.6-0.3-0.9-0.3h-2v2.6h2c0.4,0,0.7-0.1,1-0.3c0.2-0.3,0.3-0.6,0.3-0.9C107.9,35.6,107.8,35.3,107.5,35z"/>
	<path class="st0" d="M110.3,41.1v-7.1l1.1-0.6v7.7H110.3z"/>
	<path class="st0" d="M116.3,41.1v-0.5c-0.2,0.2-0.4,0.4-0.7,0.5c-0.3,0.1-0.6,0.2-0.9,0.2c-0.2,0-0.5,0-0.7-0.1
		c-0.2-0.1-0.4-0.2-0.6-0.3c-0.2-0.2-0.3-0.4-0.4-0.6c-0.1-0.3-0.2-0.6-0.2-0.9c0-0.3,0.1-0.6,0.2-0.8c0.1-0.2,0.3-0.4,0.5-0.6
		c0.2-0.2,0.5-0.3,0.7-0.3c0.3-0.1,0.6-0.1,0.9-0.1c0.4,0,0.9,0.1,1.2,0.2v-0.4c0-0.3-0.1-0.5-0.3-0.7c-0.2-0.2-0.5-0.3-0.8-0.2
		c-0.3,0-0.5,0-0.8,0.1c-0.2,0.1-0.5,0.1-0.7,0.3l-0.4-0.8c0.3-0.2,0.6-0.3,0.9-0.4c0.3-0.1,0.7-0.1,1.1-0.1c0.5,0,1.1,0.1,1.5,0.5
		c0.4,0.3,0.6,0.9,0.6,1.4v3.9H116.3z M116.3,38.7c-0.2-0.1-0.3-0.1-0.5-0.2c-0.2,0-0.5-0.1-0.8-0.1c-0.3,0-0.6,0.1-0.8,0.2
		c-0.2,0.1-0.3,0.4-0.3,0.6c0,0.3,0.1,0.5,0.3,0.7c0.2,0.2,0.5,0.3,0.8,0.3c0.3,0,0.6-0.1,0.8-0.2c0.2-0.1,0.4-0.3,0.5-0.5
		L116.3,38.7z"/>
	<path class="st0" d="M121.6,40.9c-0.1,0.1-0.3,0.1-0.5,0.2c-0.2,0-0.4,0.1-0.6,0.1c-0.3,0-0.7-0.1-0.9-0.4
		c-0.2-0.3-0.4-0.7-0.3-1.1v-3.2h-0.8v-1h0.8v-1.6l1.1-0.6v2.2h1.3v1h-1.4v3c0,0.2,0,0.4,0.1,0.5c0.1,0.1,0.3,0.2,0.4,0.1
		c0.1,0,0.3,0,0.4-0.1c0.1,0,0.3-0.1,0.4-0.2L121.6,40.9z"/>
	<path class="st0" d="M125,34.3c-0.1,0-0.3,0-0.4,0.1c-0.1,0.1-0.1,0.3-0.1,0.4v0.6h1v1h-1v4.6h-1.1v-4.6h-0.7v-1h0.7v-0.7
		c0-0.2,0-0.4,0.1-0.6c0.1-0.2,0.2-0.3,0.3-0.4c0.1-0.1,0.3-0.2,0.5-0.2c0.2,0,0.4-0.1,0.6-0.1c0.1,0,0.3,0,0.4,0
		c0.1,0,0.3,0,0.4,0.1v1C125.4,34.3,125.2,34.3,125,34.3z"/>
	<path class="st0" d="M131.1,39.5c-0.1,0.3-0.3,0.7-0.5,0.9c-0.2,0.3-0.5,0.5-0.8,0.6c-0.3,0.1-0.7,0.2-1,0.2c-0.3,0-0.7-0.1-1-0.2
		c-0.3-0.1-0.6-0.3-0.8-0.6c-0.2-0.3-0.4-0.6-0.5-0.9c-0.3-0.8-0.3-1.6,0-2.4c0.1-0.3,0.3-0.7,0.5-0.9c0.2-0.3,0.5-0.5,0.8-0.6
		c0.3-0.1,0.6-0.2,1-0.2c0.7,0,1.3,0.3,1.8,0.8c0.2,0.3,0.4,0.6,0.5,0.9c0.1,0.4,0.2,0.8,0.2,1.2C131.3,38.7,131.2,39.1,131.1,39.5z
		 M129.8,36.9c-0.2-0.3-0.6-0.5-1.1-0.5c-0.4,0-0.8,0.2-1,0.5c-0.5,0.8-0.5,1.9,0,2.7c0.2,0.3,0.6,0.5,1,0.5c0.2,0,0.4,0,0.6-0.1
		c0.2-0.1,0.3-0.2,0.4-0.4c0.1-0.2,0.2-0.4,0.3-0.6c0.1-0.2,0.1-0.5,0.1-0.7C130.2,37.8,130.1,37.3,129.8,36.9L129.8,36.9z"/>
	<path class="st0" d="M135.7,36.7c-0.1-0.1-0.2-0.1-0.4-0.2c-0.2,0-0.3-0.1-0.5-0.1c-0.3,0-0.6,0.1-0.8,0.4
		c-0.2,0.3-0.3,0.7-0.3,1.1v3.2h-1.1v-5.6h1.1V36c0.3-0.4,0.8-0.7,1.3-0.6c0.2,0,0.4,0,0.6,0.1c0.1,0,0.3,0.1,0.4,0.2L135.7,36.7z"
		/>
	<path class="st0" d="M143.6,41.1v-3.1c0-0.4-0.1-0.8-0.3-1.2c-0.2-0.2-0.5-0.4-0.8-0.3c-0.3,0-0.6,0.1-0.8,0.4
		c-0.2,0.3-0.3,0.7-0.3,1.1v3.2h-1.1v-3.1c0-0.4-0.1-0.8-0.3-1.2c-0.2-0.2-0.5-0.4-0.8-0.3c-0.3,0-0.6,0.1-0.8,0.4
		c-0.2,0.3-0.3,0.7-0.3,1.1v3.2h-1.1v-5.6h1.1V36c0.1-0.2,0.3-0.4,0.6-0.5c0.2-0.1,0.5-0.2,0.8-0.2c0.3,0,0.7,0.1,0.9,0.2
		c0.2,0.1,0.5,0.3,0.6,0.6c0.1-0.1,0.2-0.2,0.3-0.3c0.1-0.1,0.2-0.2,0.4-0.3c0.1-0.1,0.3-0.1,0.5-0.2c0.2,0,0.4-0.1,0.6-0.1
		c0.6,0,1.1,0.2,1.5,0.6c0.4,0.6,0.5,1.2,0.5,1.9v3.2H143.6z"/>
	<path class="st1" d="M12.6,19.9l-7,2.5c0.1,1.1,0.3,2.2,0.5,3.3l6.6-2.4C12.6,22.2,12.5,21.1,12.6,19.9"/>
	<path class="st1" d="M43.5,12.2c-0.5-1-1.1-2-1.7-2.9l-7,2.5c0.8,0.8,1.5,1.8,2.1,2.8L43.5,12.2z"/>
	<path class="st2" d="M28.1,10.2c1.4,0.7,2.7,1.6,3.8,2.7l7-2.5C32.5,1.4,20-0.7,11.1,5.7C5.3,9.8,2.2,16.5,2.7,23.5l7-2.5
		C10.3,13.9,16.5,8.5,23.6,9C25.2,9.2,26.7,9.6,28.1,10.2"/>
	<path class="st2" d="M6.6,25.7L0,28c0.6,2.4,1.7,4.7,3.1,6.8l7-2.5C8.3,30.4,7.1,28.1,6.6,25.7"/>
	<path class="st2" d="M35.6,23c-0.1,1.6-0.5,3.1-1.2,4.5c-3,6.5-10.7,9.3-17.2,6.3c-1.4-0.7-2.7-1.6-3.8-2.7l-7,2.5
		c6.4,9,18.8,11.1,27.8,4.7c2.8-2,5.1-4.7,6.5-7.9c1.4-3.1,2.1-6.6,1.8-10L35.6,23z"/>
	<path class="st2" d="M37.3,14.5l-6.6,2.4c1.2,2.2,1.8,4.8,1.6,7.3l7-2.5C39,19.2,38.4,16.7,37.3,14.5"/>
	<path class="st3" d="M12.6,21.3c0-0.5,0-0.9,0-1.4l-7,2.5c0,0.4,0.1,0.9,0.2,1.3L12.6,21.3z"/>
	<path class="st3" d="M42.5,10.4C42.3,10,42,9.7,41.8,9.3l-7,2.5c0.3,0.3,0.6,0.6,0.9,1L42.5,10.4z"/>
	<path class="st1" d="M6.4,33.6c0.5,0.8,1.1,1.5,1.8,2.2l7.6-2.8c-0.9-0.5-1.7-1.2-2.4-1.9L6.4,33.6z M42.5,20.5l-7,2.5
		c-0.1,1-0.3,2-0.6,3l7.6-2.8C42.6,22.3,42.6,21.4,42.5,20.5"/>
</g>
</svg>
