<?xml version="1.0" encoding="utf-8"?>
<!-- Generator: Adobe Illustrator 22.1.0, SVG Export Plug-In . SVG Version: 6.00 Build 0)  -->
<svg version="1.1" id="Layer_1" xmlns="http://www.w3.org/2000/svg" xmlns:xlink="http://www.w3.org/1999/xlink" x="0px" y="0px"
	 width="165.9px" height="44px" viewBox="0 0 165.9 44" style="enable-background:new 0 0 165.9 44;" xml:space="preserve">
<style type="text/css">
	.st0{fill:#FFFFFF;}
	.st1{fill:#A30000;}
	.st2{fill:#CC0000;}
	.st3{fill:#820000;}
</style>
<title>Logotype_RH_OpenShiftOnline_wLogo_RGB_White</title>
<g>
	<path class="st0" d="M58.1,12.7l-1.6-3.3h-1.1v3.3h-2.7V2.8h4.4c0.5,0,1.1,0.1,1.6,0.2c0.4,0.1,0.9,0.3,1.2,0.6
		c0.3,0.3,0.6,0.6,0.8,1C60.9,5,61,5.5,61,6c0,0.6-0.1,1.3-0.5,1.8c-0.3,0.5-0.8,0.8-1.3,1.1l2,3.8L58.1,12.7z M58,5.3
		C57.8,5.1,57.4,5,57.1,5h-1.7v2.2H57c0.3,0,0.7-0.1,1-0.3c0.2-0.2,0.3-0.5,0.3-0.8C58.3,5.8,58.2,5.5,58,5.3z"/>
	<path class="st0" d="M63.3,12.7V2.8h7.6v2.3H66v1.3h3v2.3h-3v1.7h5v2.3H63.3z"/>
	<path class="st0" d="M81.4,10c-0.2,0.6-0.6,1.1-1,1.5c-0.5,0.4-1.1,0.7-1.7,0.9c-0.8,0.2-1.5,0.3-2.3,0.3h-3.2V2.8h3.5
		c0.7,0,1.4,0.1,2.1,0.2c0.6,0.1,1.1,0.4,1.6,0.8c0.5,0.4,0.8,0.9,1,1.5c0.3,0.8,0.4,1.6,0.4,2.4C81.8,8.5,81.7,9.3,81.4,10z
		 M78.8,6.5c-0.1-0.3-0.2-0.6-0.4-0.8c-0.2-0.2-0.4-0.4-0.7-0.5c-0.3-0.1-0.7-0.2-1.1-0.2H76v5.2h0.6c0.4,0,0.7,0,1.1-0.1
		c0.3-0.1,0.5-0.2,0.7-0.4c0.2-0.2,0.3-0.5,0.4-0.8c0.1-0.4,0.1-0.8,0.1-1.2C78.9,7.3,78.9,6.9,78.8,6.5L78.8,6.5z"/>
	<path class="st0" d="M94.8,12.7V8.8h-3.1v3.9h-2.8V2.8h2.8v3.6h3.1V2.8h2.8v9.9H94.8z"/>
	<path class="st0" d="M106.5,12.7l-0.5-1.8h-3l-0.5,1.8h-3l3.6-9.9h2.8l3.6,9.9H106.5z M105.1,8.1c-0.1-0.3-0.2-0.6-0.2-0.8
		l-0.2-0.6c-0.1-0.2-0.1-0.4-0.1-0.5c0-0.2-0.1-0.3-0.1-0.5c0,0.2-0.1,0.3-0.1,0.5c0,0.2-0.1,0.3-0.1,0.5l-0.2,0.6l-0.2,0.8
		l-0.2,0.6h1.6L105.1,8.1z"/>
	<path class="st0" d="M115.1,5.2v7.5h-2.8V5.2h-2.8V2.8h8.3v2.4H115.1z"/>
	<path class="st0" d="M121.6,4.5c-0.1,0.2-0.2,0.3-0.3,0.4c-0.1,0.1-0.3,0.2-0.4,0.3c-0.3,0.1-0.7,0.1-1,0c-0.3-0.1-0.5-0.4-0.7-0.7
		c-0.1-0.3-0.1-0.7,0-1c0.1-0.2,0.2-0.3,0.3-0.4c0.1-0.1,0.3-0.2,0.4-0.3c0.3-0.1,0.7-0.1,1,0c0.3,0.1,0.5,0.4,0.7,0.7
		C121.7,3.8,121.7,4.2,121.6,4.5z M121.4,3.6c-0.1-0.1-0.1-0.3-0.2-0.4C121,3.1,120.9,3,120.8,3c-0.1-0.1-0.3-0.1-0.4-0.1
		c-0.3,0-0.6,0.1-0.8,0.3c-0.4,0.4-0.4,1.1,0,1.5c0.2,0.2,0.5,0.3,0.8,0.3c0.1,0,0.3,0,0.4-0.1c0.1-0.1,0.2-0.1,0.3-0.2
		C121.4,4.4,121.5,4,121.4,3.6L121.4,3.6z M120.9,4c-0.1,0.1-0.1,0.1-0.2,0.1l0.3,0.6h-0.3l-0.3-0.5h-0.3v0.5h-0.2V3.3h0.6
		c0.1,0,0.1,0,0.2,0c0.1,0,0.1,0,0.1,0.1c0,0,0.1,0.1,0.1,0.1c0,0.1,0,0.1,0,0.2C121,3.8,120.9,3.9,120.9,4z M120.7,3.5
		c0,0-0.1-0.1-0.2,0h-0.4v0.4h0.4c0.1,0,0.1,0,0.2,0c0,0,0.1-0.1,0.1-0.2C120.7,3.6,120.7,3.6,120.7,3.5L120.7,3.5z"/>
	<path class="st0" d="M64,26.1c-0.3,0.9-0.7,1.7-1.3,2.4c-0.5,0.7-1.2,1.2-2,1.6c-1.6,0.8-3.5,0.8-5.1,0c-0.8-0.4-1.4-0.9-1.9-1.6
		c-0.6-0.7-1-1.5-1.2-2.4c-0.3-1-0.4-2-0.4-3.1c0-1,0.1-2.1,0.4-3.1c0.3-0.9,0.7-1.7,1.2-2.4c0.5-0.7,1.2-1.2,2-1.6
		c1.6-0.8,3.5-0.8,5.1,0c0.8,0.4,1.4,0.9,1.9,1.6c0.6,0.7,1,1.5,1.3,2.4c0.3,1,0.5,2,0.4,3.1C64.4,24,64.3,25.1,64,26.1z M62.4,20.5
		c-0.2-0.7-0.5-1.4-1-2c-0.4-0.5-0.9-0.9-1.4-1.3c-0.6-0.3-1.2-0.5-1.8-0.5c-0.6,0-1.2,0.1-1.8,0.4c-0.6,0.3-1,0.7-1.4,1.2
		c-0.4,0.6-0.7,1.2-0.9,1.9c-0.2,0.8-0.4,1.7-0.3,2.5c0,0.9,0.1,1.7,0.4,2.5c0.2,0.7,0.5,1.4,1,2c0.4,0.5,0.9,1,1.4,1.3
		c1.1,0.6,2.5,0.6,3.6,0c0.6-0.3,1-0.7,1.4-1.2c0.4-0.6,0.7-1.2,0.9-1.9c0.2-0.8,0.3-1.7,0.3-2.5C62.8,22.1,62.7,21.3,62.4,20.5z"/>
	<path class="st0" d="M77.7,21.9c-0.2,0.6-0.6,1-1,1.4c-0.5,0.4-1,0.7-1.6,0.9c-0.7,0.2-1.4,0.3-2,0.3h-3.6v5.8h-1.7V15.5h5.6
		c0.6,0,1.3,0.1,1.9,0.3c0.6,0.2,1.1,0.4,1.5,0.8c0.4,0.4,0.8,0.9,1,1.4c0.3,0.6,0.4,1.3,0.4,2C78,20.7,77.9,21.3,77.7,21.9z
		 M75.6,17.8c-0.7-0.6-1.5-0.8-2.4-0.8h-3.9v6H73c2.2,0,3.4-1,3.4-3C76.4,19.2,76.1,18.4,75.6,17.8L75.6,17.8z"/>
	<path class="st0" d="M80.9,30.4V15.5h9V17h-7.3v4.7h4.3v1.5h-4.3v5.7h7.7v1.5L80.9,30.4z"/>
	<path class="st0" d="M102.5,30.4L96,20.2c-0.1-0.1-0.2-0.3-0.3-0.5c-0.1-0.2-0.2-0.4-0.3-0.5s-0.2-0.3-0.3-0.5
		c-0.1-0.1-0.1-0.3-0.2-0.4v12.1h-1.6V15.5H95l6.4,10.4c0.1,0.1,0.2,0.3,0.3,0.5c0.1,0.2,0.2,0.4,0.3,0.5l0.3,0.5
		c0.1,0.1,0.1,0.3,0.2,0.4V15.5h1.6v14.9H102.5z"/>
	<path class="st0" d="M116.8,28.1c-0.2,0.5-0.6,1-1,1.3c-0.5,0.4-1,0.7-1.6,0.9c-0.7,0.2-1.4,0.3-2.1,0.3c-1,0-1.9-0.2-2.8-0.6
		c-0.8-0.4-1.5-0.8-2.2-1.5l1.1-1.2c0.5,0.5,1.2,1,1.8,1.3c0.7,0.3,1.4,0.5,2.1,0.5c0.8,0,1.7-0.2,2.4-0.7c0.6-0.5,0.9-1.1,0.9-1.9
		c0-0.3-0.1-0.6-0.2-0.9c-0.1-0.3-0.3-0.6-0.6-0.8c-0.3-0.3-0.7-0.5-1.1-0.7c-0.6-0.3-1.1-0.5-1.7-0.7c-0.7-0.2-1.4-0.5-2-0.9
		c-0.5-0.2-0.9-0.6-1.3-0.9c-0.3-0.3-0.6-0.7-0.7-1.1c-0.2-0.5-0.2-0.9-0.2-1.4c0-1.1,0.5-2.1,1.3-2.8c0.4-0.3,0.9-0.6,1.5-0.8
		c0.6-0.2,1.3-0.3,1.9-0.3c0.9,0,1.7,0.1,2.5,0.4c0.7,0.3,1.4,0.7,2,1.2l-1.1,1.3c-0.5-0.4-1-0.8-1.6-1c-0.6-0.2-1.3-0.4-1.9-0.3
		c-0.4,0-0.9,0.1-1.3,0.2c-0.3,0.1-0.6,0.3-0.9,0.5c-0.2,0.2-0.4,0.4-0.5,0.7c-0.1,0.3-0.2,0.6-0.2,0.8c0,0.3,0,0.6,0.1,0.8
		c0.1,0.3,0.3,0.5,0.5,0.7c0.3,0.3,0.7,0.5,1.1,0.7c0.6,0.3,1.2,0.5,1.8,0.7c0.7,0.2,1.4,0.5,2.1,0.9c0.5,0.3,0.9,0.6,1.3,1
		c0.3,0.3,0.6,0.7,0.7,1.2c0.1,0.5,0.2,1,0.2,1.5C117.1,27.1,117,27.6,116.8,28.1z"/>
	<path class="st0" d="M129.6,30.4v-7h-7.4v7h-1.7V15.5h1.7v6.4h7.4v-6.4h1.7v14.9H129.6z"/>
	<path class="st0" d="M135.3,30.4V15.5h1.7v14.9H135.3z"/>
	<path class="st0" d="M142.6,17V22h4.1v1.5h-4.1v6.9H141V15.5h8.7V17H142.6z"/>
	<path class="st0" d="M157.7,17v13.4h-1.7V17h-4.4v-1.5h10.4V17H157.7z"/>
	<path class="st0" d="M165.9,17.3c-0.1,0.2-0.2,0.3-0.3,0.4c-0.1,0.1-0.3,0.2-0.4,0.3c-0.3,0.1-0.7,0.1-1,0
		c-0.2-0.1-0.3-0.2-0.4-0.3c-0.1-0.1-0.2-0.3-0.3-0.4c-0.1-0.3-0.1-0.7,0-1c0.1-0.2,0.2-0.3,0.3-0.4c0.1-0.1,0.3-0.2,0.4-0.3
		c0.3-0.1,0.7-0.1,1,0c0.2,0.1,0.3,0.2,0.4,0.3c0.1,0.1,0.2,0.3,0.3,0.4C166,16.6,166,17,165.9,17.3z M165.7,16.4
		c-0.1-0.1-0.1-0.2-0.2-0.3c-0.1-0.1-0.2-0.2-0.3-0.2c-0.3-0.1-0.6-0.1-0.9,0c-0.1,0.1-0.2,0.1-0.3,0.2c-0.1,0.1-0.2,0.2-0.2,0.3
		c-0.1,0.3-0.1,0.6,0,0.9c0.1,0.1,0.1,0.2,0.2,0.3c0.1,0.1,0.2,0.2,0.3,0.2c0.3,0.1,0.6,0.1,0.9,0c0.1-0.1,0.2-0.1,0.3-0.2
		c0.1-0.1,0.2-0.2,0.2-0.3C165.8,16.9,165.8,16.6,165.7,16.4z M165.2,16.7c-0.1,0.1-0.1,0.1-0.2,0.1l0.3,0.6H165l-0.3-0.5h-0.3v0.5
		h-0.2v-1.4h0.6c0.1,0,0.1,0,0.2,0c0.1,0,0.1,0,0.1,0.1c0,0,0.1,0.1,0.1,0.1c0,0.1,0,0.1,0,0.2C165.2,16.6,165.2,16.7,165.2,16.7
		L165.2,16.7z M165,16.3c0,0-0.1-0.1-0.2,0h-0.4v0.4h0.4c0.1,0,0.1,0,0.2,0c0,0,0.1-0.1,0.1-0.2C165,16.4,165,16.4,165,16.3
		L165,16.3z"/>
	<path class="st0" d="M58.5,38.9c-0.1,0.4-0.4,0.9-0.6,1.2c-0.3,0.3-0.6,0.6-1,0.8c-0.4,0.2-0.8,0.3-1.3,0.3c-0.4,0-0.9-0.1-1.3-0.3
		c-0.4-0.2-0.7-0.4-1-0.8c-0.3-0.3-0.5-0.8-0.6-1.2c-0.2-0.5-0.2-1-0.2-1.6c0-0.5,0.1-1.1,0.2-1.6c0.1-0.4,0.4-0.8,0.7-1.2
		c0.3-0.3,0.6-0.6,1-0.8c0.4-0.2,0.8-0.3,1.3-0.3c0.4,0,0.9,0.1,1.3,0.3c0.4,0.2,0.7,0.4,1,0.8c0.3,0.3,0.5,0.8,0.6,1.2
		c0.2,0.5,0.2,1,0.2,1.6C58.7,37.8,58.7,38.4,58.5,38.9z M57.4,36.2c-0.1-0.3-0.2-0.6-0.4-0.9c-0.2-0.2-0.4-0.4-0.6-0.5
		c-0.5-0.2-1.1-0.2-1.6,0c-0.2,0.1-0.5,0.3-0.6,0.5c-0.2,0.3-0.3,0.6-0.4,0.9c-0.2,0.8-0.2,1.5,0,2.3c0.1,0.3,0.2,0.6,0.4,0.9
		c0.2,0.2,0.4,0.4,0.6,0.5c0.5,0.2,1.1,0.2,1.6,0c0.3-0.1,0.5-0.3,0.6-0.5c0.2-0.3,0.3-0.5,0.4-0.9c0.1-0.4,0.2-0.8,0.1-1.1
		C57.6,37,57.5,36.6,57.4,36.2L57.4,36.2z"/>
	<path class="st0" d="M63.5,41.1v-3.1c0-0.4-0.1-0.8-0.3-1.2c-0.2-0.2-0.5-0.4-0.8-0.3c-0.3,0-0.6,0.1-0.8,0.4
		c-0.2,0.3-0.3,0.7-0.3,1.1v3.3h-1.1v-5.6h1.1V36c0.2-0.2,0.4-0.4,0.6-0.5c0.3-0.1,0.5-0.2,0.8-0.2c0.6,0,1.1,0.2,1.5,0.6
		c0.4,0.5,0.6,1.2,0.5,1.9v3.2H63.5z"/>
	<path class="st0" d="M66.2,41.1v-7.2l1.1-0.5v7.7H66.2z"/>
	<path class="st0" d="M70.1,34.5c-0.1,0.1-0.3,0.2-0.5,0.2c-0.2,0-0.4-0.1-0.5-0.2c-0.1-0.1-0.2-0.3-0.2-0.5c0-0.4,0.3-0.7,0.7-0.7
		c0.2,0,0.4,0.1,0.5,0.2c0.1,0.1,0.2,0.3,0.2,0.5C70.3,34.2,70.2,34.4,70.1,34.5z M69,41v-5.5h1.1v5.6L69,41z"/>
	<path class="st0" d="M75.2,41.1v-3.1c0-0.4-0.1-0.8-0.3-1.2c-0.2-0.2-0.5-0.4-0.8-0.3c-0.3,0-0.6,0.1-0.8,0.4
		c-0.2,0.3-0.3,0.7-0.3,1.1v3.3h-1.1v-5.6h1.1V36c0.2-0.2,0.4-0.4,0.6-0.5c0.3-0.1,0.5-0.2,0.8-0.2c0.6,0,1.1,0.2,1.5,0.6
		c0.4,0.5,0.6,1.2,0.5,1.9v3.2H75.2z"/>
	<path class="st0" d="M82.4,38.4c0,0.1,0,0.2,0,0.2h-3.7c0,0.2,0.1,0.5,0.2,0.7c0.1,0.2,0.2,0.3,0.3,0.5c0.1,0.1,0.3,0.2,0.4,0.3
		c0.2,0.1,0.3,0.1,0.5,0.1c0.2,0,0.4,0,0.6-0.1c0.2-0.1,0.4-0.2,0.6-0.3l0.6,0.7c-0.2,0.2-0.5,0.4-0.8,0.5c-0.3,0.1-0.7,0.2-1.1,0.2
		c-0.3,0-0.6-0.1-0.9-0.2c-0.3-0.1-0.6-0.3-0.8-0.6c-0.2-0.3-0.4-0.6-0.5-0.9c-0.1-0.4-0.2-0.8-0.2-1.2c0-0.4,0.1-0.8,0.2-1.3
		c0.1-0.3,0.3-0.6,0.5-0.9c0.2-0.2,0.5-0.4,0.8-0.6c0.3-0.1,0.7-0.2,1-0.2c0.4,0,0.7,0.1,1,0.2c0.3,0.1,0.5,0.3,0.7,0.6
		c0.2,0.3,0.4,0.6,0.4,0.9c0.1,0.4,0.1,0.7,0.1,1.1C82.4,38.3,82.4,38.3,82.4,38.4z M81.2,37.2c-0.1-0.2-0.1-0.3-0.2-0.4
		c-0.1-0.1-0.2-0.2-0.4-0.3c-0.2-0.1-0.4-0.1-0.6-0.1c-0.3,0-0.7,0.1-0.9,0.4c-0.2,0.3-0.4,0.7-0.4,1h2.6
		C81.3,37.6,81.3,37.4,81.2,37.2L81.2,37.2z"/>
	<path class="st1" d="M12.6,19.9l-7,2.5c0.1,1.1,0.3,2.2,0.5,3.3l6.6-2.4C12.6,22.2,12.5,21.1,12.6,19.9"/>
	<path class="st1" d="M43.5,12.2c-0.5-1-1.1-2-1.7-2.9l-7,2.5c0.8,0.8,1.5,1.8,2.1,2.8L43.5,12.2z"/>
	<path class="st2" d="M28.1,10.2c1.4,0.7,2.7,1.6,3.8,2.7l7-2.5C32.5,1.4,20-0.7,11.1,5.7C5.3,9.8,2.2,16.5,2.7,23.5l7-2.5
		C10.2,13.9,16.4,8.5,23.6,9C25.2,9.2,26.7,9.6,28.1,10.2"/>
	<path class="st2" d="M6.6,25.7L0,28c0.6,2.4,1.7,4.7,3.1,6.8l7-2.5C8.3,30.4,7.1,28.1,6.6,25.7"/>
	<path class="st2" d="M35.6,23c-0.1,1.6-0.5,3.1-1.2,4.5c-3,6.5-10.7,9.3-17.2,6.3c-1.4-0.7-2.7-1.6-3.8-2.7l-7,2.5
		c6.4,9,18.8,11.1,27.8,4.7c2.8-2,5.1-4.7,6.5-7.9c1.4-3.1,2.1-6.6,1.8-10L35.6,23z"/>
	<path class="st2" d="M37.3,14.5l-6.6,2.4c1.2,2.2,1.8,4.8,1.6,7.3l7-2.5C39,19.2,38.4,16.7,37.3,14.5"/>
	<path class="st3" d="M12.6,21.3c0-0.5,0-0.9,0-1.4l-7,2.5c0,0.4,0.1,0.9,0.2,1.3L12.6,21.3z"/>
	<path class="st3" d="M42.5,10.4C42.3,10,42,9.7,41.8,9.3l-7,2.5c0.3,0.3,0.6,0.6,0.9,1L42.5,10.4z"/>
	<path class="st1" d="M6.4,33.6c0.5,0.8,1.1,1.5,1.8,2.2l7.6-2.8c-0.9-0.5-1.7-1.2-2.4-1.9L6.4,33.6z M42.5,20.5l-7,2.5
		c-0.1,1-0.3,2-0.6,3l7.6-2.8C42.6,22.3,42.6,21.4,42.5,20.5"/>
</g>
</svg>
